<?xml version="1.0" encoding="UTF-8"?>
<svg width="63px" height="63px" viewBox="0 0 63 63" version="1.1" xmlns="http://www.w3.org/2000/svg" xmlns:xlink="http://www.w3.org/1999/xlink">
    <!-- Generator: Sketch 49 (51002) - http://www.bohemiancoding.com/sketch -->
    <title>Icon/play</title>
    <desc>Created with Sketch.</desc>
    <defs>
        <path d="M25,42.1875 L25,20.3125 C25,19.4495551 25.6995551,18.75 26.5625,18.75 C26.9005785,18.75 27.2295372,18.8596529 27.5,19.0625 L42.0833333,30 C42.7736893,30.517767 42.9136003,31.4971441 42.3958333,32.1875 C42.3069986,32.3059464 42.2017797,32.4111652 42.0833333,32.5 L27.5,43.4375 C26.8096441,43.955267 25.830267,43.8153559 25.3125,43.125 C25.1096529,42.8545372 25,42.5255785 25,42.1875 Z M31.25,1.38777878e-15 C13.9911016,-5.55111512e-15 1.38777878e-15,13.9911016 0,31.25 C-4.16333634e-15,39.5380153 3.29240126,47.4865751 9.15291309,53.3470869 C15.0134249,59.2075987 22.9619847,62.5 31.25,62.5 C39.5380153,62.5 47.4865751,59.2075987 53.3470869,53.3470869 C59.2075987,47.4865751 62.5,39.5380153 62.5,31.25 C62.5,22.9619847 59.2075987,15.0134249 53.3470869,9.15291309 C47.4865751,3.29240126 39.5380153,6.9388939e-16 31.25,1.38777878e-15 Z" id="path-1"></path>
    </defs>
    <g id="Symbols" stroke="none" stroke-width="1" fill="none" fill-rule="evenodd">
        <g id="Components/slider/login-slider" transform="translate(-86.000000, -653.000000)">
            <g id="Icon/play">
                <g transform="translate(80.000000, 647.000000)">
                    <g transform="translate(6.250000, 6.250000)">
                        <mask id="mask-2" fill="white">
                            <use xlink:href="#path-1"></use>
                        </mask>
                        <use id="Mask" fill="#000000" fill-rule="nonzero" xlink:href="#path-1"></use>
                        <g id="Color/white" mask="url(#mask-2)">
                            <g transform="translate(-6.250000, -6.250000)">
                                <g>
                                    <rect id="Rectangle" fill="#FFFFFF" x="0" y="0" width="74.8801917" height="74.8801917"></rect>
                                </g>
                            </g>
                        </g>
                    </g>
                </g>
            </g>
        </g>
    </g>
</svg>