<?xml version="1.0" encoding="UTF-8"?>
<svg width="20px" height="20px" viewBox="0 0 20 20" version="1.1" xmlns="http://www.w3.org/2000/svg" xmlns:xlink="http://www.w3.org/1999/xlink">
    <!-- Generator: Sketch 49.1 (51147) - http://www.bohemiancoding.com/sketch -->
    <title>warning-alt</title>
    <desc>Created with Sketch.</desc>
    <defs>
        <path d="M8.68562254,1.2138724 C9.35602575,0.543469183 10.4458358,0.546340852 11.1133673,1.2138724 L18.5851175,8.68562254 C19.2555207,9.35602575 19.252649,10.4458358 18.5851175,11.1133673 L11.1133673,18.5851175 C10.4429641,19.2555207 9.35315408,19.252649 8.68562254,18.5851175 L1.2138724,11.1133673 C0.543469183,10.4429641 0.546340852,9.35315408 1.2138724,8.68562254 L8.68562254,1.2138724 Z M11,11.0001571 L11,5.99984287 C11,5.44987429 10.550055,5 10,5 C9.44994499,5 9,5.44987429 9,5.99984287 L9,11.0001571 C9,11.5501257 9.44994499,12 10,12 C10.550055,12 11,11.5501257 11,11.0001571 Z M10,15 C10.5522552,15 11,14.5514019 11,13.9994502 C11,13.4474986 10.5522552,13 10,13 C9.44774477,13 9,13.4474986 9,13.9994502 C9,14.5514019 9.44774477,15 10,15 Z" id="path-1"></path>
    </defs>
    <g id="Page-1" stroke="none" stroke-width="1" fill="none" fill-rule="evenodd">
        <g id="warning-alt">
            <g id="Color/white-Clipped">
                <mask id="mask-2" fill="white">
                    <use xlink:href="#path-1"></use>
                </mask>
                <use id="path-1" fill="#FFFFFF" xlink:href="#path-1"></use>
            </g>
        </g>
    </g>
</svg>